<svg xmlns="http://www.w3.org/2000/svg" viewBox="0 0 280 64" fill="none">
  <defs>
    <linearGradient id="bg2" x1="0" y1="0" x2="1" y2="1">
      <stop offset="0%" stop-color="#0f0a1e"/>
      <stop offset="100%" stop-color="#1a1035"/>
    </linearGradient>
    <linearGradient id="pgrad" x1="0" y1="0" x2="1" y2="1">
      <stop offset="0%" stop-color="#a855f7"/>
      <stop offset="100%" stop-color="#ec4899"/>
    </linearGradient>
  </defs>
  <rect width="280" height="64" rx="12" fill="url(#bg2)"/>
  <polygon points="28,12 48,16 48,32 28,36 8,32 8,16" fill="none" stroke="url(#pgrad)" stroke-width="2"/>
  <polygon points="28,16 42,19 42,29 28,32 14,29 14,19" fill="url(#pgrad)" opacity="0.25"/>
  <path d="M18 18v16h6c5 0 9-3.5 9-8s-3.5-8-9-8h-6zm4 3h2c2.5 0 4.5 2 4.5 5s-2 5-4.5 5h-2v-10z" fill="url(#pgrad)"/>
  <path d="M32 22l3 3 5-5" stroke="url(#pgrad)" stroke-width="1.8" stroke-linecap="round" stroke-linejoin="round" fill="none"/>
  <text x="70" y="28" font-family="system-ui,-apple-system,sans-serif" font-size="16" font-weight="700" fill="#a855f7">Decision</text>
  <text x="70" y="48" font-family="system-ui,-apple-system,sans-serif" font-size="14" fill="#a1a1aa">OPERATING SYSTEM</text>
</svg>
